# xmcd CD Database Entry
#
# Track frame offsets:
# 150
# 5286
# 15924
# 37648
# 48775
# 61762
# 73559
# 84934
# 97546
# 124110
# 143244
# 166221
# 190566
# 204300
# 230122
# 249537
# 265099
# 278921
# 292141
#
# Disc length: 3958 seconds
#
# Revision: 2
# Processed by: cddbd v1.4PL0 Copyright (c) Steve Scherf et al.
# Submitted via: tcd 2.0b
#
DISCID=eb0f7413
DTITLE=Skaldowie - Zlote Przeboje
DYEAR=1900
DGENRE=
TTITLE0=Sarabanda
TTITLE1=Wszystko mi mowi, ze mnie ktos pokochal
TTITLE2=Cala jestes w skowronkach
TTITLE3=Kroliczek
TTITLE4=Medytacje wiejskiego listonosza
TTITLE5=Zawieja
TTITLE6=Zeby cos sie stalo z nami
TTITLE7=Bas
TTITLE8=Od wschodu do zachodu
TTITLE9=Katastrofa
TTITLE10=Czasem kochac chcesz
TTITLE11=Mateusz IV
TTITLE12=Przesliczna wiolonczelistka
TTITLE13=Prawo Izaaka Newtona
TTITLE14=Nadejdziesz od strony morz
TTITLE15=Malowany dym
TTITLE16=Cisza Krzyczy
TTITLE17=Jutro odnajde ciebie
TTITLE18=Sarabanda
EXTD=
EXTT0=
EXTT1=
EXTT2=
EXTT3=
EXTT4=
EXTT5=
EXTT6=
EXTT7=
EXTT8=
EXTT9=
EXTT10=
EXTT11=
EXTT12=
EXTT13=
EXTT14=
EXTT15=
EXTT16=
EXTT17=
EXTT18=
PLAYORDER=
